<svg xmlns="http://www.w3.org/2000/svg" viewBox="0 0 100 100" width="100" height="100">
  <path d="M50 88 C34 88 22 76 22 58 C22 46 29 33 40 24 C42 22 44 21 46 20 C44 26 45 33 48 39 C49 35 50 30 50 24 C50 30 51 35 52 39 C55 33 56 26 54 20 C56 21 58 22 60 24 C71 33 78 46 78 58 C78 76 66 88 50 88 Z"
        fill="currentColor"/>
  <path d="M50 78 C40 78 34 70 34 58 C34 50 38 42 44 36 C45 35 46 34 47 33 C46 38 47 43 49 47 C49 44 50 40 50 36 C50 40 51 44 51 47 C53 43 54 38 53 33 C54 34 55 35 56 36 C62 42 66 50 66 58 C66 70 60 78 50 78 Z"
        fill="white" opacity="0.35"/>
  <ellipse cx="50" cy="68" rx="6" ry="10" fill="white" opacity="0.6"/>
</svg>
